PathFileType	4	(X/Y/Z)	/home/abdul/Desktop/myosuite/custom_workspace/IK/output/S14_12_2.trc
DataRate	CameraRate	NumFrames	NumMarkers	Units	OrigDataRate	OrigDataStartFrame	OrigNumFrames
200.0	200.0	67	3	mm	200.0	1859	2124
Frame#	Time	V_Shoulder			V_Elbow			V_Wrist		
		X1	Y1	Z1	X2	Y2	Z2	X3	Y3	Z3

1859	9.29	-159.21663024612351	669.785038728735	313.39283141321425	-200.17826328513797	464.39332476341286	42.46699975402878	-85.45882633312381	239.83620971546907	68.13030916821408
1860	9.295	-159.23806973779733	669.9836602111092	313.31808829761786	-200.92822019571184	464.6681001652171	42.40263717559359	-86.29666536184257	240.12945905865027	68.68315636733465
1861	9.3	-159.26009000055134	670.1893121022249	313.24302634913414	-201.69468828100523	464.95627103851086	42.336676976162224	-87.17068391106278	240.43974597974864	69.23429521116645
1862	9.305	-159.28264704357625	670.402137766297	313.1677305183477	-202.4772888548943	465.25818360628546	42.2690320770634	-88.08106560829793	240.76783639416658	69.78244497998662
1863	9.31	-159.30569583211908	670.6222750290782	313.0922850712781	-203.27559997292974	465.5741698574873	42.19961348064036	-89.02791450907478	241.11449523685997	70.32629830696857
1864	9.315	-159.32919036702285	670.8498558875514	313.01677335142324	-204.0891572266221	465.90454660009243	42.12833040244063	-90.01125338351173	241.48048469978232	70.86452415364812
1865	9.32	-159.35308376763922	671.0850062317303	312.9412775421293	-204.91745470047272	466.24961454711286	42.05509040801292	-91.03102224563456	241.86656242677049	71.39577092309158
1866	9.325	-159.37732835803072	671.3278455794347	312.8658784300689	-205.75994608891813	466.6096574377631	41.97979955469223	-92.08707713438278	242.27347966898407	71.91866970358745
1867	9.33	-159.40187575636867	671.5784868248667	312.7906551706174	-206.6160459695186	466.9849411958406	41.90236253880435	-93.17918915439385	242.70197940418416	72.43183763502637
1868	9.335	-159.4266769674226	671.8370360017773	312.7156850559263	-207.48513122788864	467.3757131271781	41.822682848766256	-94.30704378373233	243.15279442331348	72.93388138948589
1869	9.34	-159.4516824780267	672.1035920619689	312.6410432864923	-208.36654262904125	467.78220115783665	41.7406629245985	-95.47024045476331	243.6266453880162	73.42340075690444
1870	9.345	-159.47684235539876	672.3782466698331	312.5668027470252	-209.2595865290055	468.2046131145036	41.65620432439945	-96.66829241335523	244.12423886291566	73.89899232611386
1871	9.35	-159.5021063481763	672.6610840135761	312.4930337874129	-210.1635367197827	468.6431360483597	41.56920789835763	-97.90062686054111	244.64626532664914	74.35925325090565
1872	9.355	-159.5274239900254	672.9521806337301	312.4198040095744	-211.07763639993755	469.09793560347384	41.479573970897334	-99.16658537967429	245.19339716583852	74.80278509023793
1873	9.36	-159.5527447056665	673.2516052694964	312.3471780609855	-212.00110026238193	469.56915543057914	41.38720253156248	-100.46542465098713	245.76628665635963	75.22819771114916
1874	9.365	-159.57801791915267	673.5594187234105	312.2752174356462	-212.9331166902045	470.0569166468813	41.29199343524507	-101.79631745430565	246.36556393645236	75.63411324243559
1875	9.37	-159.60319316422513	673.8756737447562	312.20398028324297	-213.87285005074108	470.56131734235214	41.19384661235542	-103.15835395949392	246.99183497639638	76.01917006667622
1876	9.375	-159.62822019656235	674.2004149321007	312.13352122724194	-214.81944307746687	471.08243213276637	41.09266228951168	-104.55054330300473	247.6456795496547	76.38202683775332
1877	9.38	-159.6530491077292	674.5336786552549	312.06389119262116	-215.77201932873635	471.62031175955497	40.988341221295656	-105.97181544770237	248.3276492105644	76.72136651062284
1878	9.385	-159.67763044062505	674.8754929969037	311.99513724392784	-216.7296857119	472.1749827363723	40.88078493357932	-107.42102332190638	249.03826528382717	77.03590036974084
1879	9.39	-159.70191530621955	675.2258777140783	311.9273024343159	-217.69153506090004	472.7464470421141	40.76989597887137	-108.89694523238725	249.77801687121843	77.32437204224962
1880	9.395	-159.72585550135898	675.5848442195833	311.8604256661837	-218.6566487550948	473.3346818599698	40.65557820406545	-110.39828754483214	250.54735888109758	77.58556148177723
1881	9.4	-159.74940362741663	675.9523955834188	311.7945415639993	-219.62409936679012	473.93963936196803	40.537737030890604	-111.92368762409694	251.34671008645603	77.8182889085054
1882	9.405	-159.77251320955583	676.3285265541722	311.7296803598593	-220.59295332477166	474.5612465383569	40.41627974926931	-113.47171702537857	252.17645121738445	78.02141869101851
1883	9.41	-159.79513881636623	676.7132236002803	311.66586779228413	-221.56227358104377	475.199405071079	40.29111582367942	-115.04088492628148	253.03692309397871	78.19386315536028
1884	9.415	-159.81723617962865	677.1064649710044	311.6031250187131	-222.53112226799436	475.85399125053164	40.162157212492325	-116.62964178862578	253.92842480582493	78.33458630669877
1885	9.42	-159.83876231395928	677.508220776879	311.54146854210757	-223.4985633333244	476.524855934774	40.02931870012091	-118.23638323775269	254.8512119443175	78.44260744903497
1886	9.425	-159.85967563607835	677.9184530893391	311.48091015202886	-224.46366514031735	477.211824550336	39.89251824165663	-119.8594541460377	255.8054948941563	78.51700468848627
1887	9.43	-159.87993608344553	678.3371160591555	311.4214568804986	-225.42550302138247	477.9146971338189	39.75167731950518	-121.4971529063248	256.7914371904496	78.55691830583652
1888	9.435	-159.8995052320006	678.7641560532453	311.3631109729012	-226.38316177329045	478.63324841354256	39.60672131134449	-123.1477358800555	257.80915394790776	78.56155398426739
1889	9.44	-159.91834641274502	679.19951180936	311.3058698741274	-227.33573808314082	479.3672279306105	39.45757986852709	-124.80942200398948	258.8587103686522	78.5301858784747
1890	9.445	-159.93642482689978	679.6431146080885	311.24972623010564	-228.28234287485446	480.1163601989092	39.30418730383163	-126.48039753860334	259.9401203351801	78.4621595117254
1891	9.45	-159.9537076593715	680.0948884615526	311.1946679048045	-229.22210356685645	480.88034490374895	39.14648298724043	-128.1588209405191	261.0533450950178	78.35689448782914
1892	9.455	-159.97016419026127	680.5547503181136	311.1406780127348	-230.15416623256306	481.65885713905243	38.984411748188705	-129.8428278406563	262.19829204356444	78.21388700547895
1893	9.46	-159.9857659041489	681.0226102823513	311.08773496691555	-231.07769765625886	482.45154768319753	38.81792428250796	-131.5305361092283	263.3748136115639	78.03271216296137
1894	9.465	-160.0004865968881	681.4983718495214	311.0358125422111	-231.99188727790417	483.25804331379504	38.646977562078675	-133.22005098821722	264.5827062635558	77.81302604184356
1895	9.47	-160.01430247964905	681.981932153652	310.9848799538824	-232.8959490213265	484.0779471618229	38.47153524502146	-134.90947027156753	265.8217096135329	77.55456755891379
1896	9.475	-160.02719227994876	682.4731822283827	310.9349019511376	-233.78912300112043	484.91083910564817	38.29156808409175	-136.59688951303892	267.0915056638836	77.25716007638034
1897	9.48	-160.03913733941226	682.972007279614	310.8858389254054	-234.67067710440665	485.7562762055442	38.10705433080265	-138.28040724145714	268.39171817350893	76.92071276111986
1898	9.485	-160.05012170801234	683.4782869689903	310.83764703299494	-235.5399084443859	486.61379317935655	37.9179801326825	-139.95813016299942	269.721912160786	76.54522168460807
1899	9.49	-160.06013223454113	683.9918957072018	310.7902783317488	-236.39614468337055	487.4829029199849	37.72433992098022	-141.6281783301514	271.081593546793	76.130770656061
1900	9.495	-160.06915865307178	684.5127029560591	310.7436809312369	-237.23874522368027	488.3630970553405	37.526136786060356	-143.28869025707377	272.4702089439224	75.67753178225993
1901	9.5	-160.07719366517517	685.0405735382641	310.6977991559839	-238.06710226546045	489.25384655139624	37.32338283768368	-144.93782796132348	273.8871455946802	75.1857657485261
1902	9.505	-160.08423301766507	685.5753679537787	310.65257372116986	-238.8806417311136	490.15460235888673	37.11609954734606	-146.5737819121817	275.33173146510524	74.65582181634782
1903	9.51	-160.09027557565037	686.1169427016692	310.60794192019057	-239.67882405663337	491.06479610412975	36.904318069848934	-148.19477586625072	276.8032354968449	74.08813753423938
1904	9.515	-160.09532339068446	686.6651506062908	310.5638378234156	-240.46114485069535	491.9838408243321	36.68807954129929	-149.79907157149313	278.3008680214856	73.48323815952405
1905	9.52	-160.0993817638085	687.2198411466625	310.52019248743653	-241.2271354228908	492.91113174761944	36.46743535078434	-151.38497332149427	279.8237813402667	72.8417357898791
1906	9.525	-160.10245930329668	687.7808607878809	310.47693417405213	-241.97636318298956	493.8460471178819	36.242447383036506	-152.9508323424332	281.37107047179836	72.16432820465283
1907	9.53	-160.10456797692058	688.348053313414	310.4339885781983	-242.70843191358824	494.78794906436815	36.01318822949675	-154.4950509960426	282.9417740698683	71.45179741715918
1908	9.535	-160.105723158561	688.9212601571217	310.39127906399267	-243.42298191893786	495.73618451578795	35.77974136529907	-156.0160867827217	284.5348755128473	70.70500794036832
1909	9.54	-160.10594366900634	689.5003207338581	310.3487269080305	-244.11969005315441	496.69008615849094	35.542201289833855	-157.5124561299308	286.14930416560446	69.92490476963604
1910	9.545	-160.10525181078796	690.0850727675205	310.3062515490381	-244.79826963139698	497.6489734380957	35.30067362870361	-158.98273795204193	287.78393681421244	69.11251108734696
1911	9.55	-160.10367339691567	690.675352615428	310.26377084296456	-245.45847022794823	498.6121536037318	35.05527519505908	-160.42557696893158	289.43759927307065	68.2689256955777
1912	9.555	-160.1012377733871	691.2709955879321	310.2212013225703	-246.1000773654573	499.57892279384316	34.80613400849681	-161.83968677178532	291.10906816339286	67.39532018411386
1913	9.56	-160.09797783535933	691.8718362621925	310.1784584605528	-246.72291209990001	500.5485671622806	34.55338926990871	-163.2238526258202	292.7970728613101	66.49293584236817
1914	9.565	-160.09393003688055	692.4777087890707	310.1354569352364	-247.32683050608063	501.52036404318557	34.297191290899676	-164.5769340009217	294.50029761312555	65.56308032494506
1915	9.57	-160.0891343940965	693.0884471921449	310.09211089784463	-247.91172306874182	502.4935831529382	34.037701376628945	-165.8978668225249	296.21738381452735	64.60712408176747
1916	9.575	-160.08363448185614	693.7038856578665	310.04833424036764	-248.4775139845633	503.4674878272175	33.77509166118336	-167.18566543643874	297.9469324498307	63.626496564822496
1917	9.58	-160.07747742365515	694.3238588159419	310.0040408630364	-249.02416038051987	504.4413362909893	33.50954489485395	-168.43942428270813	299.68750668657356	62.62268222468376
1918	9.585	-160.07071387487005	694.9482020090527	309.95914494042177	-249.5516514542305	505.4143829590156	33.241254182960475	-169.6583192750231	301.4376346200498	61.59721631102455
1919	9.59	-160.06339799924794	695.576751551087	309.91356118518075	-250.06000754206858	506.38587976425714	32.97042267614898	-170.84160888361112	303.1958121616147	60.55168049234001
1920	9.595	-160.05558743863023	696.2093449730996	309.8672051084905	-250.54927912091307	507.35507751132405	32.697263212374374	-171.98863492097377	304.960506063868	59.4876983110414
1921	9.6	-160.04734327590253	696.845821256281	309.8199932762207	-251.01954574950605	508.3212272519228	32.42199791106998	-173.09882303124954	306.7301570750899	58.40693049096499
1922	9.605	-160.03872999117584	697.4860210512687	309.7718435599241	-251.47091495544316	509.28358167904656	32.14485772029892	-174.17168288538954	308.5031832145991	57.311070115144744
1923	9.61	-160.02981541121684	698.1297868831939	309.7226753817438	-251.9035210738568	510.2413965364669	31.866081917974626	-175.20680808571086	310.27798316001395	56.201837692426366
1924	9.615	-160.02067065215894	698.7769633419266	309.6724099523676	-252.31752404386458	511.1939320399046	31.585917568528355	-176.20387578474237	312.05293973673196	55.080976132144
1925	9.62	-160.01137005553826	699.4273972570368	309.62097050119473	-252.7131081688396	512.1404543060949	31.304618936688264	-177.16264602458182	313.8264234993115	53.95024564663406
